<svg width="316" height="253" viewBox="0 0 316 253" fill="none" xmlns="http://www.w3.org/2000/svg">
<path d="M243 10H242.961L242.863 34.3662L271.851 7.62793L275.031 11.0771L275.322 10.791L315.291 51.3418L314.528 52.0938L314.759 52.3398L242.525 119.616L242 252.04V253H0V243H0.0361328L1 0H243V10ZM168.373 188.682L168.412 188.766L128 207.541V208H127.014L111.141 215.375L107.714 208H10.1748L10.0361 243H232.036L232.487 128.965L168.373 188.682ZM132.404 149.866L119.505 198H124.803L161.376 181.008L132.557 149.725L132.404 149.866ZM10.4209 146L10.2148 198H109.152L123.088 146H10.4209ZM142.723 146L168.954 174.475L199.526 146H142.723ZM147.436 136H210V136.244L232.542 115.249L232.772 57.2793L147.436 136ZM10.8613 35H210V45H10.8223L10.6875 79H162V89H10.6475L10.4609 136H132.688L232.826 43.626L232.96 10H10.9609L10.8613 35ZM242.81 48.0205L242.58 105.899L301.206 51.2969L271.705 21.3662L242.81 48.0205Z" fill="white"/>
</svg>
