<svg width="174" height="163" viewBox="0 0 174 163" fill="none" xmlns="http://www.w3.org/2000/svg">
<path d="M106.081 20.7959L119.188 22.6689L132.232 10.9766L132.214 10.9551L134.2 9.21289L136.076 7.53223L136.095 7.55273L136.726 7L158.677 32.041L160.412 33.8984L145.632 47.7061L151.123 59.4756L172.944 59.001L172.966 60H173.081V94H173.065L173.075 94.4355L151.834 94.8965L146.162 112.618L162.116 126.741L161.974 126.9L162.081 127L139.727 151.154L137.549 153.615L120.432 138.463L108.199 140.971L108.732 161.839L102.734 161.991L102.071 136L102.643 135.985L121.933 132.03L122.058 131.89L137.076 145.184L153.658 127.267L138.671 114L139.845 112.673L146.98 90.374L146.951 89.001L167.081 88.5635V65.1299L147.081 65.5645L147.067 64.9717L140.288 50.4443L137.317 47.2637L152.009 33.5381L136.188 15.4893L121.081 29.0312L121.049 28.9951L100.081 26V6H76.0811V26L52.1299 26.9971L52.0996 27.0312L37.377 13.1895L21.3926 31.5391L35.9775 45.251L34.8135 46.5039L26.0811 63L25.9102 62.9092L25.9131 63.1172L6.13379 63.3701L6.36816 87.1133L27.041 87.5664L27.0312 88.0146L27.0811 88L34.0811 111L34.3232 111.242L19.8193 125.746L36.1719 143.19L51.1182 129.877L51.2686 130.048L76.7158 136.646L78.0791 136.611L78.5889 156.604L102.581 155.993L102.734 161.991L78.7412 162.603L72.7441 162.756L72.5908 156.758V156.757L72.2061 141.675L52.5996 136.592L35.7354 151.615L34.0537 149.703L11.3535 125.488L15.7051 121.357L15.7139 121.366L27.4053 109.675L22.4727 93.4668L1.08105 93V92.9932L0.426758 93L0.134766 63.4473L0.078125 63.4482L0 57.4482L22.3828 57.1611L28.1992 46.1738L13.0156 31.8984L14.7578 30.0205L36.5537 5L36.9062 5.31055L37.3027 4.88477L54.3369 20.9004L70.0811 20.2441V0H106.081V20.7959ZM88.0811 43C110.725 43 129.081 60.9086 129.081 83C129.081 105.091 110.725 123 88.0811 123C65.4374 123 47.0811 105.091 47.0811 83C47.0811 60.9086 65.4374 43 88.0811 43ZM88.0811 51C69.6683 51 55.0811 65.512 55.0811 83C55.0811 100.488 69.6683 115 88.0811 115C106.494 115 121.081 100.488 121.081 83C121.081 65.512 106.494 51 88.0811 51Z" fill="white"/>
</svg>
