<svg width="227" height="88" viewBox="0 0 227 88" fill="none" xmlns="http://www.w3.org/2000/svg">
<path d="M114.353 0.00390625C176.644 0.181557 227 19.8097 227 44C227 68.1903 176.644 87.8175 114.353 87.9951C114.235 87.9959 114.118 88 114 88C113.951 88 113.902 87.9982 113.854 87.998C113.736 87.9982 113.618 88 113.5 88C50.8157 88 0 68.3005 0 44C0 19.6995 50.8157 0 113.5 0C113.618 0 113.736 0.00083733 113.854 0.000976562C113.902 0.000837145 113.951 0 114 0C114.118 0 114.235 0.00309869 114.353 0.00390625ZM113.5 10C108.982 10 104.537 10.1081 100.182 10.3125C85.2546 15.5239 75 28.9185 75 44C75 59.0814 85.2547 72.475 100.182 77.6865C104.538 77.891 108.982 78 113.5 78C118.419 78 123.251 77.8724 127.976 77.6309C142.817 72.3804 153 59.0283 153 44C153 28.9716 142.817 15.6186 127.976 10.3682C123.251 10.1266 118.419 10 113.5 10ZM81.9902 11.7852C64.5039 13.819 49.0581 17.4816 36.8584 22.2109C27.2659 25.9296 20.1856 30.1117 15.6758 34.2451C11.173 38.3721 10 41.6808 10 44C10 46.3192 11.173 49.6279 15.6758 53.7549C20.1856 57.8883 27.2659 62.0704 36.8584 65.7891C49.0581 70.5184 64.504 74.1801 81.9902 76.2139C72.7696 68.1805 67 56.722 67 44C67 31.2778 72.7693 19.8186 81.9902 11.7852ZM146.162 11.9189C155.294 19.9456 161 31.3481 161 44C161 56.6517 155.294 68.0535 146.162 76.0801C163.175 74.0211 178.211 70.4143 190.142 65.7891C199.734 62.0704 206.814 57.8883 211.324 53.7549C215.827 49.6279 217 46.3192 217 44C217 41.6808 215.827 38.3721 211.324 34.2451C206.814 30.1117 199.734 25.9296 190.142 22.2109C178.211 17.5857 163.175 13.978 146.162 11.9189Z" fill="white"/>
</svg>
